<svg width="32" height="32" viewBox="0 0 32 32" fill="none" xmlns="http://www.w3.org/2000/svg">
<path d="M16 0C7.17794 0 0 7.17794 0 16C0 24.8221 7.17794 32 16 32C24.8221 32 32 24.8221 32 16C32 7.17794 24.8221 0 16 0ZM24.9424 11.7895L14.7168 21.9348C14.1153 22.5363 13.1529 22.5764 12.5113 21.9749L7.09774 17.0426C6.45614 16.4411 6.41604 15.4386 6.97744 14.797C7.57895 14.1554 8.58145 14.1153 9.22306 14.7168L13.5138 18.6466L22.6566 9.50376C23.2982 8.86215 24.3008 8.86215 24.9424 9.50376C25.584 10.1454 25.584 11.1479 24.9424 11.7895Z" fill="#4752D8"/>
</svg>
